<?xml version="1.0" standalone="no"?>
<!DOCTYPE svg PUBLIC "-//W3C//DTD SVG 20010904//EN"
 "http://www.w3.org/TR/2001/REC-SVG-20010904/DTD/svg10.dtd">
<svg version="1.0" xmlns="http://www.w3.org/2000/svg"
 width="160.000000pt" height="160.000000pt" viewBox="0 0 160.000000 160.000000"
 preserveAspectRatio="xMidYMid meet">
<metadata>
Created by potrace 1.14, written by Peter Selinger 2001-2017
</metadata>
<g transform="translate(0.000000,160.000000) scale(0.100000,-0.100000)"
fill="#000000" stroke="none">
<path d="M688 1504 c-89 -17 -159 -56 -218 -122 -80 -90 -125 -200 -136 -334
-5 -51 -11 -78 -19 -78 -35 0 -125 89 -125 124 0 31 -34 85 -59 94 -55 19
-103 -6 -120 -63 -17 -60 36 -235 103 -339 35 -55 94 -118 150 -161 20 -15 34
-30 31 -34 -2 -4 -7 -22 -10 -39 -8 -46 -53 -146 -108 -242 -100 -171 -93
-155 -74 -174 26 -26 79 -44 117 -41 19 2 76 18 127 34 116 39 151 39 266 -1
133 -45 228 -45 356 0 114 41 154 40 300 -4 71 -22 118 -30 145 -27 45 5 92
29 101 51 3 8 -19 52 -51 99 -62 94 -125 222 -147 298 l-15 51 64 52 c35 29
80 73 99 100 89 121 151 314 124 391 -17 50 -95 73 -134 41 -8 -6 -26 -43 -40
-81 -23 -60 -33 -73 -77 -101 -28 -18 -53 -31 -56 -28 -3 3 -6 21 -7 40 -12
212 -108 386 -254 459 -31 16 -71 32 -89 36 -59 12 -175 12 -244 -1z"/>
</g>
</svg>
